<svg width="120" height="60" viewBox="0 0 120 60" fill="none" xmlns="http://www.w3.org/2000/svg">
  <path d="M110 30C110 46.5685 96.5685 60 80 60C63.4315 60 50 46.5685 50 30C50 13.4315 63.4315 0 80 0C96.5685 0 110 13.4315 110 30Z" fill="white" fill-opacity="0.2"/>
  <path d="M70 40C70 51.0457 61.0457 60 50 60C38.9543 60 30 51.0457 30 40C30 28.9543 38.9543 20 50 20C61.0457 20 70 28.9543 70 40Z" fill="white" fill-opacity="0.2"/>
  <path d="M40 35C40 43.2843 33.2843 50 25 50C16.7157 50 10 43.2843 10 35C10 26.7157 16.7157 20 25 20C33.2843 20 40 26.7157 40 35Z" fill="white" fill-opacity="0.2"/>
</svg>