<svg width="100" height="30" viewBox="0 0 100 30" fill="none" xmlns="http://www.w3.org/2000/svg">
  <path d="M15.5 7H8.5C7.67157 7 7 7.67157 7 8.5V21.5C7 22.3284 7.67157 23 8.5 23H15.5C16.3284 23 17 22.3284 17 21.5V8.5C17 7.67157 16.3284 7 15.5 7Z" stroke="#8B5CF6" stroke-width="2" stroke-linecap="round" stroke-linejoin="round"/>
  <path d="M12 19.5C12.8284 19.5 13.5 18.8284 13.5 18C13.5 17.1716 12.8284 16.5 12 16.5C11.1716 16.5 10.5 17.1716 10.5 18C10.5 18.8284 11.1716 19.5 12 19.5Z" fill="#8B5CF6"/>
  <path d="M26.336 21V9.8H29.968C31.2 9.8 32.208 10.104 32.992 10.712C33.776 11.32 34.168 12.152 34.168 13.208C34.168 14.264 33.776 15.096 32.992 15.704C32.208 16.312 31.2 16.616 29.968 16.616H28.4V21H26.336ZM28.4 14.84H29.896C30.504 14.84 30.976 14.696 31.312 14.408C31.648 14.12 31.816 13.72 31.816 13.208C31.816 12.696 31.648 12.296 31.312 12.008C30.976 11.72 30.504 11.576 29.896 11.576H28.4V14.84ZM35.6539 21V9.8H37.7179V21H35.6539ZM39.8139 21V9.8H41.8779V19.224H46.3979V21H39.8139ZM51.3939 21.168C50.4219 21.168 49.5539 20.968 48.7899 20.568C48.0259 20.168 47.4219 19.608 46.9779 18.888C46.5339 18.168 46.3099 17.344 46.3099 16.416C46.3099 15.488 46.5339 14.664 46.9819 13.944C47.4299 13.224 48.0379 12.664 48.8059 12.264C49.5739 11.864 50.4459 11.664 51.4219 11.664C52.3979 11.664 53.2699 11.864 54.0379 12.264C54.8059 12.664 55.4139 13.224 55.8619 13.944C56.3099 14.664 56.5339 15.488 56.5339 16.416C56.5339 17.344 56.3059 18.168 55.8499 18.888C55.3939 19.608 54.7779 20.168 54.0019 20.568C53.2259 20.968 52.3659 21.168 51.3939 21.168ZM51.3939 19.28C51.9219 19.28 52.3979 19.16 52.8219 18.92C53.2459 18.68 53.5779 18.344 53.8179 17.912C54.0579 17.48 54.1779 16.984 54.1779 16.424C54.1779 15.864 54.0619 15.368 53.8299 14.936C53.5979 14.504 53.2739 14.168 52.8579 13.928C52.4419 13.688 51.9699 13.568 51.4419 13.568C50.9139 13.568 50.4419 13.688 50.0259 13.928C49.6099 14.168 49.2859 14.504 49.0539 14.936C48.8219 15.368 48.7059 15.864 48.7059 16.424C48.7059 16.984 48.8179 17.48 49.0419 17.912C49.2659 18.344 49.5819 18.68 49.9899 18.92C50.3979 19.16 50.8659 19.28 51.3939 19.28ZM58.0939 21V11.8H60.0779V13.36H60.1779C60.3859 12.832 60.7139 12.424 61.1619 12.136C61.6099 11.848 62.1219 11.704 62.6979 11.704C63.2819 11.704 63.7859 11.848 64.2099 12.136C64.6339 12.424 64.9379 12.832 65.1219 13.36H65.2219C65.4379 12.848 65.7859 12.444 66.2659 12.148C66.7459 11.852 67.3059 11.704 67.9459 11.704C68.7699 11.704 69.4379 11.968 69.9499 12.496C70.4619 13.024 70.7179 13.8 70.7179 14.824V21H68.6539V15.28C68.6539 14.688 68.5019 14.26 68.1979 13.996C67.8939 13.732 67.5299 13.6 67.1059 13.6C66.6019 13.6 66.2059 13.764 65.9179 14.092C65.6299 14.42 65.4859 14.856 65.4859 15.4V21H63.4619V15.2C63.4619 14.672 63.3139 14.268 63.0179 13.988C62.7219 13.708 62.3539 13.568 61.9139 13.568C61.6179 13.568 61.3459 13.644 61.0979 13.796C60.8499 13.948 60.6499 14.16 60.4979 14.432C60.3459 14.704 60.2699 15.024 60.2699 15.392V21H58.0939ZM77.3939 21.168C76.4219 21.168 75.5539 20.968 74.7899 20.568C74.0259 20.168 73.4219 19.608 72.9779 18.888C72.5339 18.168 72.3099 17.344 72.3099 16.416C72.3099 15.488 72.5339 14.664 72.9819 13.944C73.4299 13.224 74.0379 12.664 74.8059 12.264C75.5739 11.864 76.4459 11.664 77.4219 11.664C78.3979 11.664 79.2699 11.864 80.0379 12.264C80.8059 12.664 81.4139 13.224 81.8619 13.944C82.3099 14.664 82.5339 15.488 82.5339 16.416C82.5339 17.344 82.3059 18.168 81.8499 18.888C81.3939 19.608 80.7779 20.168 80.0019 20.568C79.2259 20.968 78.3659 21.168 77.3939 21.168ZM77.3939 19.28C77.9219 19.28 78.3979 19.16 78.8219 18.92C79.2459 18.68 79.5779 18.344 79.8179 17.912C80.0579 17.48 80.1779 16.984 80.1779 16.424C80.1779 15.864 80.0619 15.368 79.8299 14.936C79.5979 14.504 79.2739 14.168 78.8579 13.928C78.4419 13.688 77.9699 13.568 77.4419 13.568C76.9139 13.568 76.4419 13.688 76.0259 13.928C75.6099 14.168 75.2859 14.504 75.0539 14.936C74.8219 15.368 74.7059 15.864 74.7059 16.424C74.7059 16.984 74.8179 17.48 75.0419 17.912C75.2659 18.344 75.5819 18.68 75.9899 18.92C76.3979 19.16 76.8659 19.28 77.3939 19.28ZM84.0939 21V11.8H86.0779V13.36H86.1779C86.3859 12.832 86.7139 12.424 87.1619 12.136C87.6099 11.848 88.1219 11.704 88.6979 11.704C89.2819 11.704 89.7859 11.848 90.2099 12.136C90.6339 12.424 90.9379 12.832 91.1219 13.36H91.2219C91.4379 12.848 91.7859 12.444 92.2659 12.148C92.7459 11.852 93.3059 11.704 93.9459 11.704C94.7699 11.704 95.4379 11.968 95.9499 12.496C96.4619 13.024 96.7179 13.8 96.7179 14.824V21H94.6539V15.28C94.6539 14.688 94.5019 14.26 94.1979 13.996C93.8939 13.732 93.5299 13.6 93.1059 13.6C92.6019 13.6 92.2059 13.764 91.9179 14.092C91.6299 14.42 91.4859 14.856 91.4859 15.4V21H89.4619V15.2C89.4619 14.672 89.3139 14.268 89.0179 13.988C88.7219 13.708 88.3539 13.568 87.9139 13.568C87.6179 13.568 87.3459 13.644 87.0979 13.796C86.8499 13.948 86.6499 14.16 86.4979 14.432C86.3459 14.704 86.2699 15.024 86.2699 15.392V21H84.0939Z" fill="#8B5CF6"/>
</svg>